<svg width="89" height="35" viewBox="0 0 89 35" fill="none" xmlns="http://www.w3.org/2000/svg">
<path d="M71.365 35C81.104 35 89 27.165 89 17.5C89 7.835 81.104 0 71.365 0C61.625 0 53.73 7.835 53.73 17.5C53.73 27.165 61.625 35 71.365 35ZM48.257 25.345C48.74 25.345 49.205 25.155 49.547 24.815C49.7159 24.6474 49.85 24.448 49.9416 24.2283C50.0331 24.0086 50.0802 23.773 50.0802 23.535C50.0802 23.297 50.0331 23.0614 49.9416 22.8417C49.85 22.622 49.7159 22.4226 49.547 22.255C49.2039 21.9147 48.7402 21.7238 48.257 21.7238C47.7738 21.7238 47.3101 21.9147 46.967 22.255C46.798 22.4226 46.6639 22.622 46.5724 22.8417C46.4809 23.0614 46.4338 23.297 46.4338 23.535C46.4338 23.773 46.4809 24.0086 46.5724 24.2283C46.6639 24.448 46.798 24.6474 46.967 24.815C47.309 25.155 47.773 25.345 48.257 25.345ZM40.136 10.045H44.306V25.463H40.46L34.109 17.008L34.159 25.342H29.979V9.945H33.836L40.136 18.892V10.045ZM21.327 25.723C17.31 25.723 14.543 23.108 14.543 19.333V10.045H18.723V19.342C18.723 20.895 19.803 21.967 21.327 21.967C22.862 21.967 23.942 20.895 23.942 19.351V10.045H28.122V19.332C28.122 23.11 25.355 25.723 21.327 25.723ZM8.09199 17.54L14.139 25.344H8.88799L4.38799 19.111H4.22799V25.342H0.04599V10.045H4.22599V16.417H4.33599L8.58599 10.045H13.412L8.09199 17.54Z" fill="#0C2F75"/>
<path d="M85.605 25.339V21.642H79.658L86.059 10.042H73.986V13.728H79.204L72.774 25.338L85.605 25.339ZM71.845 19.329V10.04H67.665V19.347C67.665 20.89 66.585 21.962 65.05 21.962C63.526 21.962 62.446 20.89 62.446 19.337V10.04H58.266V19.327C58.266 23.105 61.032 25.719 65.05 25.719C69.078 25.719 71.845 23.104 71.845 19.327V19.329Z" fill="white"/>
</svg>
