<svg width="64" height="40" viewBox="0 0 64 40" fill="none" xmlns="http://www.w3.org/2000/svg">
<path d="M8.22628 32.9154V36.1056C8.22628 38.7101 7.20228 39.7564 4.35408 39.7564H0.0214844V20.208H4.08588C6.91168 20.208 7.93338 21.2297 7.93338 23.8588V26.3918C7.93338 27.9992 7.54438 29.0209 6.56968 29.5798C7.73888 30.0918 8.22628 31.138 8.22628 32.9154ZM2.96809 22.5442V28.6565H4.08588C4.62238 28.6565 4.98008 28.4329 4.98008 27.6571V23.5436C4.98008 22.7633 4.61568 22.5442 4.08588 22.5442H2.96809ZM5.27969 31.9697C5.27969 31.1917 4.89068 30.9972 4.35408 30.9972H2.96809V37.4246H4.35408C4.89068 37.4246 5.27969 37.2011 5.27969 36.4499V31.9697Z" fill="#FCCB6A"/>
<path d="M13.8825 19.9639H13.9317C16.8671 19.9639 17.9067 20.9856 17.9067 23.6169V36.3466C17.9067 38.9534 16.8604 39.9996 13.9161 39.9996H13.8825C10.936 39.9996 9.8897 38.9757 9.8897 36.3466V23.6169C9.8808 21.0146 10.9516 19.9639 13.8825 19.9639ZM12.8363 23.3732V36.5903C12.8363 37.3705 13.2968 37.5896 13.8825 37.5896H13.9317C14.5398 37.5896 14.978 37.3661 14.978 36.5903V23.3732C14.978 22.6176 14.5644 22.3739 13.9317 22.3739H13.8825C13.2879 22.3739 12.8273 22.593 12.8273 23.3732H12.8363Z" fill="#FCCB6A"/>
<path d="M26.0689 37.4202V39.7564H19.4961V20.208H22.4427V37.4224L26.0689 37.4202Z" fill="#FCCB6A"/>
<path d="M33.0307 36.2509H30.8398L30.5491 39.7564H27.3097L29.9634 20.208H33.9071L36.5608 39.7564H33.3325L33.0307 36.2509ZM32.8362 33.9147L32.1543 25.8798L31.9307 23.3737L31.7072 25.8798L31.0253 33.9147H32.8362Z" fill="#FCCB6A"/>
<path d="M44.3273 37.4202V39.7564H37.7545V20.208H40.71V37.4224L44.3273 37.4202Z" fill="#FCCB6A"/>
<path d="M51.2891 36.2509H49.0982L48.8053 39.7564H45.5681L48.2218 20.208H52.1655L54.8192 39.7564H51.582L51.2891 36.2509ZM51.0946 33.9147L50.4239 25.8798L50.2004 23.3737L49.9768 25.8798L49.2949 33.9147H51.0946Z" fill="#FCCB6A"/>
<path d="M63.9718 39.7564H61.0543L60.9336 32.7946C60.909 31.8691 60.4865 31.6254 59.8627 31.6254H58.9685V39.7564H56.0107V20.208H60.0774C62.901 20.208 63.9227 21.2297 63.9227 23.8588V27.0513C63.9227 28.7548 63.4599 29.8011 62.3577 30.3377C63.4755 30.825 63.8198 31.9451 63.8444 33.9147L63.9718 39.7564ZM58.9573 22.542V29.2869H60.0751C60.6094 29.2869 60.9694 29.0634 60.9694 28.3122V23.5436C60.9694 22.7633 60.6027 22.5442 60.0751 22.5442L58.9573 22.542Z" fill="#FCCB6A"/>
<path d="M38.792 6.55664H38.251V14.169H38.7987C39.0737 14.169 39.2727 14.0572 39.2727 13.6704V7.06864C39.266 6.67074 39.0782 6.55664 38.792 6.55664Z" fill="black"/>
<path d="M28.7896 6.46973H28.765C28.4655 6.46973 28.2307 6.58373 28.2307 6.98173V13.7445C28.2307 14.1447 28.4543 14.2564 28.765 14.2564H28.7896C29.1026 14.2564 29.3262 14.1447 29.3262 13.7445V6.98173C29.3262 6.59493 29.1138 6.46973 28.7896 6.46973Z" fill="black"/>
<path d="M11.962 6.46973H11.9374C11.6379 6.46973 11.4009 6.58373 11.4009 6.98173V13.7445C11.4009 14.1447 11.6379 14.2564 11.9374 14.2564H11.962C12.2728 14.2564 12.4986 14.1447 12.4986 13.7445V6.98173C12.4986 6.59493 12.2862 6.46973 11.962 6.46973Z" fill="black"/>
<path d="M43.6878 6.98145L43.5761 8.26475L43.2273 12.3738H44.1484L43.7996 8.26475L43.6878 6.98145Z" fill="black"/>
<path d="M53.6878 3.72469H8.89906C8.75266 3.72289 8.60746 3.75019 8.47176 3.80509C8.33606 3.85989 8.21265 3.94119 8.10865 4.04419C8.00455 4.14709 7.92205 4.26969 7.86585 4.40489C7.80965 4.53999 7.78085 4.68499 7.78125 4.83129V16.0095C7.78125 16.306 7.89895 16.5903 8.10865 16.7999C8.31825 17.0096 8.60256 17.1273 8.89906 17.1273H53.6878C53.9843 17.1273 54.2686 17.0096 54.4782 16.7999C54.6879 16.5903 54.8056 16.306 54.8056 16.0095V4.83129C54.8027 4.53679 54.6836 4.25539 54.4743 4.04809C54.2649 3.84089 53.9823 3.72469 53.6878 3.72469ZM14.0053 13.6219C14.0053 14.9632 13.4687 15.4886 11.9619 15.4886H11.9373C10.4305 15.4886 9.89386 14.9655 9.89386 13.6219V7.10719C9.89386 5.76579 10.4417 5.23819 11.9373 5.23819H11.9619C13.4687 5.23819 14.0053 5.76139 14.0053 7.10719V13.6219ZM18.8633 13.6219C18.8633 14.9632 18.3402 15.4886 16.8512 15.4886H16.7529C15.2952 15.4886 14.7721 14.9543 14.7721 13.6219V12.8103L16.2722 12.7432V13.7515C16.2722 14.1517 16.4578 14.2635 16.7462 14.2635H16.8445C16.9143 14.2746 16.9857 14.269 17.0529 14.2472C17.1201 14.2255 17.1812 14.188 17.2311 14.1381C17.2811 14.0881 17.3185 14.0271 17.3402 13.9599C17.362 13.8927 17.3676 13.8213 17.3565 13.7515V12.6002C17.3478 12.2858 17.2433 11.9816 17.0569 11.7283L15.4629 9.52389C15.063 9.01139 14.836 8.38519 14.8146 7.73539V7.10719C14.8146 5.76579 15.3511 5.23819 16.7953 5.23819H16.8199C18.2776 5.23819 18.8007 5.76139 18.8007 7.10719V7.85389L17.2939 7.92769V6.98199C17.2939 6.59519 17.1061 6.47009 16.8199 6.47009H16.7886C16.5136 6.47009 16.3147 6.58409 16.3147 6.98199V7.69069C16.3317 7.99249 16.4357 8.28289 16.6143 8.52679L18.215 10.7312C18.622 11.2561 18.8493 11.8981 18.8633 12.5622V13.6219ZM25.9123 15.3656H24.4189L24.5552 10.7178L24.629 8.63859L24.2445 10.7178L23.2474 15.3276H22.3777L21.3784 10.7178L20.9804 8.62519L21.0676 10.7178L21.204 15.3656H19.7106V5.36559H21.4991L22.6169 11.0084L22.8405 12.2291L23.0395 11.0084L24.1573 5.36559H25.9458L25.9123 15.3656ZM30.8307 13.6219C30.8307 14.9632 30.2963 15.4886 28.7873 15.4886H28.7627C27.2559 15.4886 26.7193 14.9655 26.7193 13.6219V7.10719C26.7193 5.76579 27.2693 5.23819 28.7627 5.23819H28.7873C30.2963 5.23819 30.8307 5.76139 30.8307 7.10719V13.6219ZM35.8631 15.3656H34.5686L33.2586 10.7558L32.9612 9.55969L33.0104 10.7558L33.1468 15.3656H31.64V5.36559H32.9366L34.1819 9.79889L34.5418 11.232L34.4926 9.79889L34.3585 5.36559H35.8653L35.8631 15.3656ZM40.7591 13.4967C40.7591 14.838 40.236 15.3656 38.7895 15.3656H36.735V5.36559H38.7895C40.236 5.36559 40.7591 5.88879 40.7591 7.23239V13.4967ZM44.3943 15.3656L44.2467 13.5771H43.1289L42.9791 15.3656H41.3225L42.6795 5.36559H44.6916L46.0509 15.3679L44.3943 15.3656ZM50.4305 15.3656H49.496L49.136 14.6055C48.8365 15.1287 48.4139 15.4998 47.8394 15.4998H47.7902C46.9675 15.4998 46.3572 14.9275 46.3572 13.595V7.11169C46.3572 5.77029 46.9049 5.24269 48.3513 5.24269H48.3759C49.8447 5.24269 50.3679 5.76579 50.3679 7.11169V8.09539L48.8611 8.15799V6.98199C48.8611 6.59519 48.6733 6.47009 48.3759 6.47009H48.3513C48.0764 6.47009 47.864 6.58409 47.864 6.98199V13.5838C47.864 14.1562 48.1144 14.2545 48.3625 14.2545C48.6733 14.2545 48.9237 14.031 48.9237 13.3938V11.0933H48.4139V9.89729H50.426L50.4305 15.3656ZM52.6348 15.3656H51.128V5.36559H52.6348V15.3656Z" fill="black"/>
<path d="M42.2549 2.5352H54.685C55.0246 2.5358 55.3501 2.671 55.5902 2.9111C55.8303 3.1512 55.9654 3.4767 55.966 3.8162V17.1116L58.3559 0L42.2549 2.5352Z" fill="#FCCB6A"/>
</svg>
